HIERARCHY
ROOT Hips
{
	OFFSET -0.001795 -0.223333 0.028219
	CHANNELS 6 Xposition Yposition Zposition Zrotation Yrotation Xrotation 
	JOINT LeftUpLeg
	{
		OFFSET 0.069520 -0.091406 -0.006815
		CHANNELS 3 Zrotation Yrotation Xrotation
		JOINT LeftLeg
		{
			OFFSET 0.034277 -0.375199 -0.004496
			CHANNELS 3 Zrotation Yrotation Xrotation
			JOINT LeftFoot
			{
				OFFSET -0.013596 -0.397961 -0.043693
				CHANNELS 3 Zrotation Yrotation Xrotation
				JOINT LeftToe
				{
					OFFSET 0.026358 -0.055791 0.119288
					CHANNELS 3 Zrotation Yrotation Xrotation
					End Site
					{
						OFFSET 0.000000 0.000000 0.000000
					}
				}
			}
		}
	}
	JOINT RightUpLeg
	{
		OFFSET -0.067670 -0.090522 -0.004320
		CHANNELS 3 Zrotation Yrotation Xrotation
		JOINT RightLeg
		{
			OFFSET -0.038290 -0.382569 -0.008850
			CHANNELS 3 Zrotation Yrotation Xrotation
			JOINT RightFoot
			{
				OFFSET 0.015774 -0.398415 -0.042312
				CHANNELS 3 Zrotation Yrotation Xrotation
				JOINT RightToe
				{
					OFFSET -0.025372 -0.048144 0.123348
					CHANNELS 3 Zrotation Yrotation Xrotation
					End Site
					{
						OFFSET 0.000000 0.000000 0.000000
					}
				}
			}
		}
	}
	JOINT Spine
	{
		OFFSET -0.002533 0.108963 -0.026696
		CHANNELS 3 Zrotation Yrotation Xrotation
		JOINT Spine1
		{
			OFFSET 0.005487 0.135180 0.001092
			CHANNELS 3 Zrotation Yrotation Xrotation
			JOINT Spine2
			{
				OFFSET 0.001457 0.052922 0.025425
				CHANNELS 3 Zrotation Yrotation Xrotation
				JOINT Neck
				{
					OFFSET -0.002778 0.213870 -0.042857
					CHANNELS 3 Zrotation Yrotation Xrotation
					JOINT Head
					{
						OFFSET 0.005152 0.064970 0.051349
						CHANNELS 3 Zrotation Yrotation Xrotation
						End Site
						{
							OFFSET 0.000000 0.000000 0.000000
						}
					}
				}
				JOINT LeftShoulder
				{
					OFFSET 0.078845 0.121749 -0.034090
					CHANNELS 3 Zrotation Yrotation Xrotation
					JOINT LeftArm
					{
						OFFSET 0.090977 0.030469 -0.008868
						CHANNELS 3 Zrotation Yrotation Xrotation
						JOINT LeftForeArm
						{
							OFFSET 0.259612 -0.012772 -0.027456
							CHANNELS 3 Zrotation Yrotation Xrotation
							JOINT LeftHand
							{
								OFFSET 0.249234 0.008986 -0.001171
								CHANNELS 3 Zrotation Yrotation Xrotation
								End Site
								{
									OFFSET 0.000000 0.000000 0.000000
								}
							}
						}
					}
				}
				JOINT RightShoulder
				{
					OFFSET -0.081759 0.118833 -0.038615
					CHANNELS 3 Zrotation Yrotation Xrotation
					JOINT RightArm
					{
						OFFSET -0.096012 0.032551 -0.009143
						CHANNELS 3 Zrotation Yrotation Xrotation
						JOINT RightForeArm
						{
							OFFSET -0.253742 -0.013329 -0.021401
							CHANNELS 3 Zrotation Yrotation Xrotation
							JOINT RightHand
							{
								OFFSET -0.255298 0.007772 -0.005559
								CHANNELS 3 Zrotation Yrotation Xrotation
								End Site
								{
									OFFSET 0.000000 0.000000 0.000000
								}
							}
						}
					}
				}
			}
		}
	}
}
MOTION
Frames: 13
Frame Time: 0.050000
0.000000 0.903812 0.000000 0.574921 -1.039600 1.295946 5.491125 -1.104762 -24.930941 -2.477198 0.103525 17.117452 1.251515 3.451757 2.069147 0.000000 0.000000 0.000000 0.655427 -1.463425 13.858073 -5.669727 1.746732 12.447760 1.866450 12.071131 -8.753061 0.000000 0.000000 0.000000 -0.191930 -0.248084 6.524224 -2.046130 0.978386 0.309576 -2.624528 9.874735 8.507641 9.278220 -2.947088 -19.236783 0.000000 0.000000 0.000000 -28.359347 -6.536106 -2.564118 -46.990113 -2.701530 -3.597480 0.721458 -15.451758 0.270984 0.000000 0.000000 0.000000 20.559886 -2.572684 -0.631038 56.614694 7.373138 -2.805535 0.503175 27.846774 1.786383 0.000000 0.000000 0.000000 
0.018313 0.908519 0.044989 0.295255 0.029021 1.810112 3.578272 -1.475528 -23.453817 -0.737207 -0.451040 18.842910 0.777106 2.302829 1.523639 0.000000 0.000000 0.000000 0.600744 -1.222907 11.360027 -6.703494 2.940110 21.857932 4.253970 15.776942 -5.095818 0.000000 0.000000 0.000000 0.429965 -0.253246 5.552865 -1.880072 0.894592 0.306066 -3.551425 8.991861 9.578653 9.814244 -3.232303 -19.701228 0.000000 0.000000 0.000000 -27.549674 -6.569063 -2.258236 -46.858681 -4.345036 -3.143743 1.208065 -15.459344 0.218094 0.000000 0.000000 0.000000 21.759150 -4.099745 -1.533205 57.378171 6.410496 -3.446389 2.083427 27.415358 2.139254 0.000000 0.000000 0.000000 
0.036327 0.917922 0.090116 1.005879 -1.160914 1.049284 1.465827 -1.561671 -19.955488 0.098006 -0.629119 18.720048 0.613027 1.830559 1.257126 0.000000 0.000000 0.000000 -1.402502 -0.451790 5.709207 -6.008003 4.352955 35.805187 6.279542 14.147183 2.484495 0.000000 0.000000 0.000000 -1.088079 -0.157956 5.619822 -1.624041 0.783736 -0.982142 -3.164739 9.414740 12.082929 9.088959 -2.998601 -19.108312 0.000000 0.000000 0.000000 -26.727418 -7.806463 -1.123113 -46.536336 -6.625096 -2.561091 0.010228 -15.617455 0.412081 0.000000 0.000000 0.000000 19.284653 -1.835641 -0.238605 59.307152 6.213161 -3.623012 1.492326 26.456940 1.893385 0.000000 0.000000 0.000000 
0.052670 0.925891 0.133468 0.895025 -1.601293 1.486249 0.667679 -1.299057 -15.319457 -0.209477 -0.422040 15.107725 -0.010906 0.186726 0.472774 0.000000 0.000000 0.000000 -0.896004 0.252686 -2.477255 -5.071048 5.690689 49.809431 7.344192 9.131501 12.277838 0.000000 0.000000 0.000000 -0.685612 -0.194771 6.046419 -1.778584 0.856857 -1.869658 -2.756233 7.859427 11.599004 8.607999 -2.922755 -19.096985 0.000000 0.000000 0.000000 -26.982222 -7.722670 -0.488457 -45.191694 -7.882841 -2.184954 -1.293274 -17.086227 0.687374 0.000000 0.000000 0.000000 18.616327 -2.937088 -1.323754 59.071452 3.709694 -4.724032 4.196471 26.146689 2.343715 0.000000 0.000000 0.000000 
0.066439 0.931318 0.175162 0.678771 -1.056578 0.586190 -0.513950 -0.886225 -9.319000 0.213346 -0.417162 11.321922 -0.383844 -1.231877 -0.843955 0.000000 0.000000 0.000000 -0.390412 1.032918 -10.541792 -1.763425 4.469015 59.773358 4.081150 4.220255 9.478418 0.000000 0.000000 0.000000 -0.487583 -0.275617 7.890196 -0.468155 0.264955 -2.131432 -4.238746 5.325187 11.792232 9.640964 -3.701983 -19.764024 0.000000 0.000000 0.000000 -27.572322 -8.356042 0.693933 -41.621391 -10.492439 -1.408135 -1.299736 -19.276676 0.836524 0.000000 0.000000 0.000000 19.869131 -3.323330 -2.106763 57.886818 2.525817 -5.276574 4.226306 26.441250 2.262072 0.000000 0.000000 0.000000 
0.077666 0.935043 0.218096 0.086651 -1.279487 -0.237136 -0.546266 -0.371611 -3.899797 0.234821 -0.315122 8.261745 -0.402816 -1.916489 -2.126707 0.000000 0.000000 0.000000 0.807283 1.873362 -17.355313 0.437157 3.065959 61.462630 1.086955 0.731999 3.658058 0.000000 0.000000 0.000000 1.059166 -0.467880 9.400554 0.120736 0.006490 -2.636521 -5.284348 3.365080 12.150837 9.376670 -3.687881 -20.336285 0.000000 0.000000 0.000000 -26.601028 -9.264060 2.118925 -41.100623 -14.534669 -0.378239 0.364215 -20.498222 0.655084 0.000000 0.000000 0.000000 20.158248 -3.232939 -2.565490 58.186180 1.008882 -6.020313 4.322434 26.808734 2.213384 0.000000 0.000000 0.000000 
0.086494 0.936588 0.263032 -0.667066 -0.996305 -0.794857 -0.777588 0.117832 1.123586 0.813757 -0.344414 6.224811 -0.566220 -2.744278 -2.955407 0.000000 0.000000 0.000000 1.747667 2.679471 -22.973667 2.595563 1.090520 55.190816 -0.704068 -2.221513 0.886927 0.000000 0.000000 0.000000 2.003016 -0.572106 9.752073 1.737204 -0.758947 -1.821844 -6.408198 1.906085 11.014083 9.850272 -4.192413 -19.632104 0.000000 0.000000 0.000000 -25.014111 -9.925722 2.935698 -40.643426 -16.913486 0.328172 2.087716 -22.560153 0.410298 0.000000 0.000000 0.000000 20.606250 -3.789337 -3.241694 57.753912 -1.229429 -6.905532 5.272503 27.294141 2.383629 0.000000 0.000000 0.000000 
0.092825 0.933004 0.309944 -1.028014 -1.269304 -1.289593 -1.425929 0.594023 5.536023 1.077250 -0.343083 5.172983 0.105632 -2.105054 -4.703085 0.000000 0.000000 0.000000 2.437339 3.273083 -26.404337 3.564150 0.266432 43.890915 -0.952911 -2.763090 0.713241 0.000000 0.000000 0.000000 2.402650 -0.621077 10.053687 2.606661 -1.130671 -2.486705 -6.520043 0.580119 11.605421 9.725701 -4.187276 -20.382146 0.000000 0.000000 0.000000 -23.369179 -10.249909 3.708474 -41.137987 -19.316112 0.900361 4.096362 -25.377494 0.097996 0.000000 0.000000 0.000000 20.009405 -4.267488 -3.802848 59.248348 -2.774326 -7.861751 3.888687 27.647915 2.027939 0.000000 0.000000 0.000000 
0.096752 0.925553 0.358901 -1.324447 -1.994074 -1.293973 -1.991449 1.116474 9.818596 1.831671 -0.395397 3.804934 0.640176 -1.578621 -6.258350 0.000000 0.000000 0.000000 3.931074 3.813514 -27.594196 3.052717 0.281547 30.314351 -0.605172 -2.128487 1.168328 0.000000 0.000000 0.000000 2.692187 -0.619472 9.688731 3.078687 -1.332622 -2.816122 -6.167034 -0.135830 11.508132 9.384200 -4.063995 -20.693138 0.000000 0.000000 0.000000 -21.446933 -9.905863 3.870654 -41.836811 -21.732998 1.652661 5.463344 -27.135494 -0.143894 0.000000 0.000000 0.000000 20.045783 -5.075060 -4.558055 59.248417 -4.402281 -8.623633 4.021716 27.467609 1.958171 0.000000 0.000000 0.000000 
0.098638 0.915871 0.410890 -1.455138 -1.728661 -0.846613 -1.875689 1.511289 13.388165 2.365147 -0.496387 4.239683 0.843806 -2.080906 -8.050715 0.000000 0.000000 0.000000 5.140168 4.165619 -28.205335 2.135122 0.247124 18.842819 0.018586 -1.909978 3.852209 0.000000 0.000000 0.000000 2.797830 -0.554467 8.388257 3.682767 -1.609144 -2.681774 -5.728136 -1.664124 11.809303 9.404728 -4.004284 -22.272408 0.000000 0.000000 0.000000 -20.503720 -10.290713 4.542697 -42.497701 -23.002489 1.994050 7.006943 -27.978513 -0.413734 0.000000 0.000000 0.000000 19.997832 -4.657249 -4.700969 59.563300 -4.802887 -8.864558 2.452101 27.040018 1.478149 0.000000 0.000000 0.000000 
0.098907 0.908540 0.467805 -1.120237 -1.869495 0.071434 -1.853747 1.774157 15.575796 2.482624 -0.584545 5.556487 0.460489 -2.393077 -6.891512 0.000000 0.000000 0.000000 5.690433 4.373502 -28.719175 2.910840 -0.034334 15.133471 -0.937230 -5.224603 6.623588 0.000000 0.000000 0.000000 2.984792 -0.429516 6.110132 4.643547 -2.002186 -3.176316 -6.552098 -3.155801 12.440655 9.022940 -4.034251 -22.079363 0.000000 0.000000 0.000000 -20.298496 -8.624920 4.076219 -44.126850 -22.567277 1.817217 6.854698 -29.380519 -0.256670 0.000000 0.000000 0.000000 21.224797 -3.453751 -4.663618 58.815465 -4.333220 -8.491169 -0.012599 25.470097 0.786305 0.000000 0.000000 0.000000 
0.096864 0.905744 0.530160 -1.147940 -2.046843 1.192248 -0.742192 1.513803 14.596571 1.668039 -0.751587 12.155787 -0.299201 -4.387394 -7.019618 0.000000 0.000000 0.000000 6.940498 4.814243 -29.574525 2.246561 0.300316 21.012910 -0.921370 -5.588117 7.644047 0.000000 0.000000 0.000000 4.090837 -0.268008 2.858124 4.795664 -2.132499 -2.194073 -6.714515 -2.525697 10.874815 7.999849 -3.478814 -20.826696 0.000000 0.000000 0.000000 -21.894832 -7.832941 3.412387 -44.216168 -19.681241 0.945523 3.522613 -30.467064 0.545035 0.000000 0.000000 0.000000 20.895263 -4.694099 -5.151912 59.074231 -4.408504 -8.436060 -0.292608 23.423536 0.685447 0.000000 0.000000 0.000000 
0.092154 0.908047 0.593682 -1.843002 -0.430276 0.985350 3.192895 0.682541 11.364665 0.183745 -0.887334 24.095163 -4.174774 -9.859125 -1.138976 0.000000 0.000000 0.000000 8.319773 4.655087 -27.472407 1.714766 0.530965 26.785528 -1.361746 -5.260459 4.466418 0.000000 0.000000 0.000000 6.312310 -0.190684 1.218832 4.031706 -1.822092 -1.589520 -6.672809 -3.409274 10.076653 7.628657 -3.251668 -20.725150 0.000000 0.000000 0.000000 -22.933370 -7.563472 3.200120 -44.991894 -16.525431 -0.087824 0.343219 -31.853429 1.436572 0.000000 0.000000 0.000000 20.032990 -4.628383 -4.953371 59.121156 -4.216198 -8.294899 1.484814 22.736083 0.977137 0.000000 0.000000 0.000000 
